{
  "accessors": [
    {
      "bufferView": 0,
      "componentType": 5126,
      "count": 4969,
      "max": [
        0.4762499928474426,
        2.010401487350464,
        2.010401487350464
      ],
      "min": [
        -0.4762499928474426,
        -2.010401487350464,
        -2.010401487350464
      ],
      "type": "VEC3"
    },
    {
      "bufferView": 0,
      "byteOffset": 12,
      "componentType": 5126,
      "count": 4969,
      "type": "VEC3"
    },
    {
      "bufferView": 1,
      "componentType": 5125,
      "count": 14862,
      "type": "SCALAR"
    }
  ],
  "asset": {
    "version": "2.0"
  },
  "bufferViews": [
    {
      "buffer": 0,
      "byteLength": 159008,
      "byteStride": 32,
      "target": 34962
    },
    {
      "buffer": 0,
      "byteLength": 59448,
      "byteOffset": 159008,
      "target": 34963
    }
  ],
  "buffers": [
    {
      "byteLength": 218456,
      "uri": "Gear.bin"
    }
  ],
  "materials": [
    {
      "doubleSided": true,
      "name": "XID_SmoothDarkSeaGreen_FD3CE6E72ED94A22BB49BA0F7F71E4F5_shader",
      "pbrMetallicRoughness": {
        "baseColorFactor": [
          0.03455609828233719,
          0.26725998520851135,
          0.1064160019159317,
          1.0
        ],
        "metallicFactor": 0.0,
        "roughnessFactor": 0.48500001430511475
      }
    }
  ],
  "meshes": [
    {
      "name": "Solid1",
      "primitives": [
        {
          "attributes": {
            "NORMAL": 1,
            "POSITION": 0
          },
          "indices": 2,
          "material": 0,
          "mode": 4
        }
      ]
    }
  ],
  "nodes": [
    {
      "matrix": [
        0.01,
        0.0,
        0.0,
        0.0,
        0.0,
        0.01,
        0.0,
        0.0,
        0.0,
        0.0,
        0.01,
        0.0,
        0.0,
        0.0,
        0.0,
        1.0
      ],
      "mesh": 0,
      "name": "Solid1"
    }
  ],
  "scenes": [
    {
      "nodes": [
        0
      ]
    }
  ]
}
